# xmcd
#
# Track frame offsets: 
#        183
#        16480
#        33408
#        58703
#        81875
#        111353
#        135840
#
# Disc length: 2294 seconds
#
# Revision: 0
# Processed by: cddbd v1.4PL0 Copyright (c) Steve Scherf et al.
# Submitted via: ExactAudioCopy v0.95a2
#
DISCID=5308f407
DTITLE=Donna Renee - Follow
DYEAR=1995
DGENRE=R&B
TTITLE0=Follow ( Radio Edit )
TTITLE1=Follow ( H-Bus House Edit )
TTITLE2=Follow ( Original Version )
TTITLE3=Follow ( Young Soul Mix )
TTITLE4=Follow ( Dub Mix )
TTITLE5=Follow ( 12" )
TTITLE6=Follow ( H-Bus Full Length )
EXTD=
EXTT0=
EXTT1=
EXTT2=
EXTT3=
EXTT4=
EXTT5=
EXTT6=
PLAYORDER=
